<svg width="15" height="15" viewBox="0 0 15 15" fill="none" xmlns="http://www.w3.org/2000/svg">
<g id="Icon" clip-path="url(#clip0_173_996)">
<path id="Vector" d="M1.19023 3.9601C0.870234 3.7801 0.730234 3.5801 0.770234 3.3601C0.790234 3.2201 0.920234 3.1501 1.16023 3.1501H13.8502C14.2302 3.1501 14.3302 3.3101 14.1502 3.6301C14.0702 3.7701 13.9502 3.8801 13.7902 3.9601C13.6502 4.0201 12.6902 4.5301 10.9102 5.4901L8.18023 6.9601C8.02023 7.0601 7.79523 7.1101 7.50523 7.1101C7.21523 7.1101 6.98023 7.0601 6.80023 6.9601L4.07023 5.4901C2.29023 4.5301 1.33023 4.0201 1.19023 3.9601ZM13.9402 5.4601C14.1402 5.3601 14.2402 5.4101 14.2402 5.6101V11.1301C14.2402 11.2901 14.1552 11.4501 13.9852 11.6101C13.8152 11.7701 13.6502 11.8501 13.4902 11.8501H1.49023C1.33023 11.8501 1.16523 11.7701 0.995234 11.6101C0.825234 11.4501 0.740234 11.2901 0.740234 11.1301V5.6101C0.740234 5.4101 0.840234 5.3601 1.04023 5.4601L6.80023 8.4601C6.98023 8.5601 7.21023 8.6101 7.49023 8.6101C7.77023 8.6101 8.00023 8.5601 8.18023 8.4601L13.9402 5.4601Z" fill="#C3512F"/>
</g>
<defs>
<clipPath id="clip0_173_996">
<rect width="13.52" height="15" fill="white" transform="matrix(1 0 0 -1 0.730469 15)"/>
</clipPath>
</defs>
</svg>
