<svg width="14" height="17" viewBox="0 0 14 17" fill="none" xmlns="http://www.w3.org/2000/svg">
<g id="Icon" clip-path="url(#clip0_173_1005)">
<path id="Vector" d="M13.4082 13.1239C13.7482 13.5093 13.7822 13.8606 13.5102 14.1779L12.7282 14.9599C12.3202 15.3226 11.9348 15.3226 11.5722 14.9599L8.34218 11.7299C7.50351 12.2059 6.61951 12.4439 5.69018 12.4439C4.23951 12.4439 2.97585 11.9056 1.89918 10.8289C0.822513 9.75227 0.28418 8.4886 0.28418 7.03793C0.28418 5.58727 0.79418 4.34627 1.81418 3.31493C2.83418 2.2836 4.06951 1.76793 5.52018 1.76793C6.97085 1.76793 8.24018 2.30627 9.32818 3.38293C10.4162 4.4596 10.9602 5.72327 10.9602 7.17393C10.9602 8.17127 10.6995 9.08927 10.1782 9.92793L13.4082 13.1239ZM1.88218 7.03793C1.88218 8.03527 2.26751 8.91927 3.03818 9.68993C3.80885 10.4606 4.69285 10.8459 5.69018 10.8459C6.68751 10.8459 7.54318 10.4889 8.25718 9.77493C8.97118 9.06093 9.32818 8.1996 9.32818 7.19093C9.32818 6.18227 8.94285 5.29827 8.17218 4.53893C7.40151 3.7796 6.51751 3.39993 5.52018 3.39993C4.52285 3.39993 3.66718 3.75693 2.95318 4.47093C2.23918 5.18493 1.88218 6.0406 1.88218 7.03793Z" fill="white"/>
</g>
<defs>
<clipPath id="clip0_173_1005">
<rect width="13.42" height="17" fill="white" transform="matrix(1 0 0 -1 0.280273 17)"/>
</clipPath>
</defs>
</svg>
